<?xml version="1.0" encoding="utf-8"?>
<svg xmlns="http://www.w3.org/2000/svg" viewBox="0 0 30 30" width="48" height="48">
  <path d="M15 3C8.3844276 3 3 8.3844276 3 15C3 21.615572 8.3844276 27 15 27C21.615572 27 27 21.615572 27 15C27 8.3844276 21.615572 3 15 3 z M 14 5.0488281L14 7L12 7L12 5.4570312C12.640665 5.2567104 13.310462 5.1169575 14 5.0488281 z M 16 5.0488281C17.729289 5.2196894 19.325163 5.8326699 20.679688 6.7675781L20 7L20 8L19 8L18 9L18 11L20 10L23 11L22 13L20 12L18 12L16 14L16 16L18 18L20 18L21 20L18.892578 24.216797C17.696702 24.720837 16.382137 25 15 25C14.632366 25 14.271265 24.977861 13.914062 24.939453L11.964844 23.035156L12 19L9 16L6 16L6 14L11 11L11 9L13 9L14 10L16 9L16 5.0488281 z" fill="#fff" />
</svg>