<?xml version="1.0" encoding="utf-8"?>
<svg xmlns="http://www.w3.org/2000/svg" viewBox="0 0 50 50" width="32" height="32">
  <path d="M25 1.0507812C24.7825 1.0507812 24.565859 1.1197656 24.380859 1.2597656L1.3808594 19.210938C0.95085938 19.550938 0.8709375 20.179141 1.2109375 20.619141C1.5509375 21.049141 2.1791406 21.129062 2.6191406 20.789062L4 19.710938L4 46C4 46.55 4.45 47 5 47L19 47L19 29L31 29L31 47L45 47C45.55 47 46 46.55 46 46L46 19.710938L47.380859 20.789062C47.570859 20.929063 47.78 21 48 21C48.3 21 48.589063 20.869141 48.789062 20.619141C49.129063 20.179141 49.049141 19.550938 48.619141 19.210938L25.619141 1.2597656C25.434141 1.1197656 25.2175 1.0507812 25 1.0507812 z M 35 5L35 6.0507812L41 10.730469L41 5L35 5 z" fill="#817776" />
</svg>