<?xml version="1.0" encoding="utf-8"?>
<svg xmlns="http://www.w3.org/2000/svg" viewBox="0 0 48 48" width="48" height="48">
  <path d="M13.470703 5.9863281 A 1.50015 1.50015 0 0 0 12.439453 6.4394531L3.5683594 15.310547 A 1.50015 1.50015 0 0 0 3.5761719 17.697266L12.439453 26.560547 A 1.50015 1.50015 0 1 0 14.560547 24.439453L8.1210938 18L44.5 18 A 1.50015 1.50015 0 1 0 44.5 15L8.1210938 15L14.560547 8.5605469 A 1.50015 1.50015 0 0 0 13.470703 5.9863281 z M 11.5 31C9.7916671 31 8.3204817 31.694633 7.3789062 32.753906C6.7946446 33.411201 6.4677946 34.191115 6.2558594 35L4.5 35 A 1.50015 1.50015 0 1 0 4.5 38L6.2558594 38C6.4677946 38.808885 6.7946446 39.588799 7.3789062 40.246094C8.3204817 41.305367 9.7916671 42 11.5 42C13.208333 42 14.679518 41.305367 15.621094 40.246094C16.205355 39.588799 16.532205 38.808885 16.744141 38L19.255859 38C19.467795 38.808885 19.794645 39.588799 20.378906 40.246094C21.320482 41.305367 22.791667 42 24.5 42C26.208333 42 27.679518 41.305367 28.621094 40.246094C29.205355 39.588799 29.532205 38.808885 29.744141 38L32.255859 38C32.467795 38.808885 32.794645 39.588799 33.378906 40.246094C34.320482 41.305367 35.791667 42 37.5 42C39.208333 42 40.679518 41.305367 41.621094 40.246094C42.205355 39.588799 42.532205 38.808885 42.744141 38L44.5 38 A 1.50015 1.50015 0 1 0 44.5 35L42.744141 35C42.532205 34.191115 42.205355 33.411201 41.621094 32.753906C40.679518 31.694633 39.208333 31 37.5 31C35.791667 31 34.320482 31.694633 33.378906 32.753906C32.794645 33.411201 32.467795 34.191115 32.255859 35L29.744141 35C29.532205 34.191115 29.205355 33.411201 28.621094 32.753906C27.679518 31.694633 26.208333 31 24.5 31C22.791667 31 21.320482 31.694633 20.378906 32.753906C19.794645 33.411201 19.467795 34.191115 19.255859 35L16.744141 35C16.532205 34.191115 16.205355 33.411201 15.621094 32.753906C14.679518 31.694633 13.208333 31 11.5 31 z M 11.5 34C12.458333 34 12.987149 34.305367 13.378906 34.746094C13.758962 35.173656 13.969187 35.801866 13.982422 36.447266 A 1.50015 1.50015 0 0 0 13.980469 36.554688C13.966659 37.199126 13.758437 37.826934 13.378906 38.253906C12.987196 38.694633 12.458333 39 11.5 39C10.541667 39 10.012851 38.694633 9.6210938 38.253906C9.2410382 37.826344 9.0308127 37.198134 9.0175781 36.552734 A 1.50015 1.50015 0 0 0 9.0195312 36.445312C9.0333409 35.800874 9.2415632 35.173066 9.6210938 34.746094C10.012851 34.305367 10.541667 34 11.5 34 z M 24.5 34C25.458333 34 25.987149 34.305367 26.378906 34.746094C26.758962 35.173656 26.969187 35.801866 26.982422 36.447266 A 1.50015 1.50015 0 0 0 26.980469 36.554688C26.966659 37.199126 26.758437 37.826934 26.378906 38.253906C25.987196 38.694633 25.458333 39 24.5 39C23.541667 39 23.012851 38.694633 22.621094 38.253906C22.241038 37.826344 22.030813 37.198134 22.017578 36.552734 A 1.50015 1.50015 0 0 0 22.019531 36.445312C22.033341 35.800874 22.241563 35.173066 22.621094 34.746094C23.012804 34.305367 23.541667 34 24.5 34 z M 37.5 34C38.458333 34 38.987149 34.305367 39.378906 34.746094C39.758962 35.173656 39.969187 35.801866 39.982422 36.447266 A 1.50015 1.50015 0 0 0 39.980469 36.554688C39.966659 37.199126 39.758437 37.826934 39.378906 38.253906C38.987196 38.694633 38.458333 39 37.5 39C36.541667 39 36.012851 38.694633 35.621094 38.253906C35.241038 37.826344 35.030813 37.198134 35.017578 36.552734 A 1.50015 1.50015 0 0 0 35.019531 36.445312C35.033341 35.800874 35.241563 35.173066 35.621094 34.746094C36.012804 34.305367 36.541667 34 37.5 34 z" fill="#fff" />
</svg>