<?xml version="1.0" encoding="utf-8"?>
<svg xmlns="http://www.w3.org/2000/svg" viewBox="0 0 32 32" width="48" height="48">
  <path d="M22 3.25L21.1875 4.4375C21.1875 4.4375 20.648438 5.191406 20.125 6.09375C19.863281 6.542969 19.617188 7.019531 19.40625 7.5C19.195313 7.980469 19 8.421875 19 9C19 10.644531 20.355469 12 22 12C23.644531 12 25 10.644531 25 9C25 8.421875 24.804688 7.980469 24.59375 7.5C24.382813 7.019531 24.136719 6.542969 23.875 6.09375C23.351563 5.191406 22.8125 4.4375 22.8125 4.4375 Z M 22 6.875C22.066406 6.984375 22.058594 6.976563 22.125 7.09375C22.363281 7.503906 22.617188 7.941406 22.78125 8.3125C22.945313 8.683594 23 9.027344 23 9C23 9.566406 22.566406 10 22 10C21.433594 10 21 9.566406 21 9C21 9.027344 21.054688 8.683594 21.21875 8.3125C21.382813 7.941406 21.636719 7.503906 21.875 7.09375C21.941406 6.976563 21.933594 6.984375 22 6.875 Z M 13.21875 8C12.503906 8 11.789063 8.273438 11.25 8.8125L5.0625 15L5.1875 15.15625C4.503906 16.046875 4 17.105469 4 18.3125L4 22C4 24.75 6.25 27 9 27L21.5 27C22.867188 27 24 25.867188 24 24.5C24 24.328125 23.972656 24.160156 23.9375 24L24.5 24C25.867188 24 27 22.867188 27 21.5C27 21.183594 26.953125 20.875 26.84375 20.59375C27.539063 20.148438 28 19.378906 28 18.5C28 17.621094 27.539063 16.851563 26.84375 16.40625C26.953125 16.125 27 15.816406 27 15.5C27 14.132813 25.867188 13 24.5 13L14.9375 13L15.1875 12.75C16.265625 11.671875 16.265625 9.890625 15.1875 8.8125C14.648438 8.273438 13.933594 8 13.21875 8 Z M 13.25 10C13.445313 10 13.625 10.0625 13.78125 10.21875C14.09375 10.53125 14.09375 11 13.78125 11.3125L10.09375 15L24.5 15C24.785156 15 25 15.214844 25 15.5C25 15.785156 24.785156 16 24.5 16L16 16L16 18L25.5 18C25.785156 18 26 18.214844 26 18.5C26 18.785156 25.785156 19 25.5 19L16 19L16 21L24.5 21C24.785156 21 25 21.214844 25 21.5C25 21.785156 24.785156 22 24.5 22L16 22L16 24L21.5 24C21.785156 24 22 24.214844 22 24.5C22 24.785156 21.785156 25 21.5 25L9 25C7.332031 25 6 23.667969 6 22L6 18.3125C6 17.359375 6.414063 16.515625 7.0625 15.90625L7.6875 15.3125L7.65625 15.25L12.6875 10.21875C12.84375 10.0625 13.054688 10 13.25 10Z" fill="#fff" />
</svg>