<?xml version="1.0" encoding="utf-8"?>
<svg xmlns="http://www.w3.org/2000/svg" viewBox="0 0 50 50" width="48" height="48">
  <path d="M45.102 34.957c-.363 0-.713-.198-.891-.543-.145-.282-.253-.345-.517-.499-.37-.215-.877-.511-1.29-1.313-.412-.802-.356-1.386-.316-1.813.028-.303.041-.429-.104-.71-.144-.28-.252-.344-.515-.496-.371-.215-.878-.51-1.289-1.312-.412-.801-.356-1.385-.315-1.811.029-.302.041-.427-.104-.707-.144-.281-.252-.344-.515-.496-.37-.215-.877-.51-1.289-1.311-.412-.801-.355-1.385-.314-1.811.029-.301.041-.426-.103-.705-.252-.492-.059-1.094.433-1.347.492-.253 1.095-.058 1.347.433.411.801.355 1.385.314 1.811-.029.301-.041.426.103.705.144.28.252.343.515.496.37.215.877.51 1.289 1.312.412.801.356 1.385.315 1.811-.029.302-.041.427.104.707.144.281.252.344.515.497.37.215.877.51 1.289 1.312.412.801.356 1.386.316 1.812-.028.303-.041.429.104.71.145.282.253.345.517.499.37.215.877.511 1.29 1.313.252.491.059 1.094-.433 1.347C45.412 34.921 45.256 34.957 45.102 34.957zM5.591 35.313c-.154 0-.31-.035-.456-.11-.491-.252-.686-.855-.433-1.346.145-.282.133-.407.104-.71-.041-.427-.096-1.011.316-1.813.412-.802.919-1.097 1.29-1.313.263-.153.372-.217.517-.499.144-.28.132-.405.103-.707-.041-.427-.097-1.011.315-1.813.412-.801.919-1.096 1.289-1.311.263-.152.372-.215.516-.496.144-.28.131-.405.103-.707-.041-.426-.097-1.01.315-1.812.411-.801.918-1.095 1.288-1.31.262-.152.371-.215.514-.494.253-.49.854-.686 1.347-.433.491.252.685.855.433 1.347-.412.801-.918 1.095-1.289 1.31-.262.152-.371.215-.514.494-.144.28-.132.405-.104.707.041.426.097 1.01-.314 1.811-.412.801-.919 1.096-1.289 1.312-.263.152-.372.215-.516.496-.144.28-.132.405-.103.708.041.427.097 1.011-.315 1.812-.412.802-.919 1.097-1.29 1.313-.263.153-.372.217-.517.499-.145.282-.133.407-.104.71.04.426.096 1.01-.316 1.812C6.305 35.114 5.955 35.313 5.591 35.313zM25 2.5A6.5 6.5 0 1 0 25 15.5 6.5 6.5 0 1 0 25 2.5zM42.251 41.113l-7.81-17.999c-.931-2.195-3.103-3.614-5.532-3.614h-7.82c-2.429 0-4.601 1.419-5.53 3.61L7.747 41.117c-.327.77-.33 1.62-.01 2.392.326.789.948 1.402 1.812 1.751.399.162.813.238 1.221.238 1.259 0 2.457-.729 2.966-1.932l4.203-9.475V46.5c0 .276.224.5.5.5h13.125c.276 0 .5-.224.5-.5V34.092l4.199 9.468c.678 1.599 2.559 2.362 4.251 1.676.803-.325 1.425-.938 1.751-1.727C42.583 42.737 42.58 41.887 42.251 41.113z" fill="#fff" />
</svg>